<svg height='300px' width='300px'  fill="#f0f0f0" xmlns="http://www.w3.org/2000/svg" xmlns:xlink="http://www.w3.org/1999/xlink" version="1.1" x="0px" y="0px" viewBox="0 0 100 100" enable-background="new 0 0 100 100" xml:space="preserve"><g><path d="M94.129,99.769h-4.23V47.498c-3.735-0.586-12.215-2.613-21.964-9.536c-9.077-6.448-15.143-18.072-18.048-24.71   c-2.961,6.631-9.122,18.262-18.199,24.71c-9.75,6.923-18.229,8.95-21.963,9.536v52.271H5.493V43.601l2.015-0.096   c0.092-0.005,9.938-0.62,21.729-8.992C41.045,26.124,47.845,7.081,47.913,6.889l2.024-5.755l1.974,5.773   c0.065,0.191,6.675,19.223,18.476,27.605c11.79,8.373,21.636,8.987,21.734,8.992l2.003,0.107l0.006,2.006V99.769L94.129,99.769z"></path><circle cx="49.979" cy="44.142" r="6.094"></circle><path d="M40.889,64.87v-4.776h1.906v4.776H57.23l0.002-4.776h1.872v4.776h4.77v-5.166c0-4.045-2.38-8.013-7.114-8.013   l-13.659-0.004c-4.313,0-7.018,3.517-7.018,7.906v5.276H40.889z"></path></g><g><path d="M22.538,67.093V99.64v0.129h54.834l0.032-32.676H22.538z M49.976,94.575c-6.154,0-11.14-4.989-11.14-11.145   c0-6.154,4.986-11.145,11.14-11.145c6.158,0,11.147,4.99,11.147,11.145C61.123,89.586,56.134,94.575,49.976,94.575z"></path><path d="M49.978,90.88c-4.148,0-7.523-3.375-7.523-7.522h2.462c0,2.79,2.271,5.06,5.061,5.06c2.792,0,5.063-2.27,5.063-5.06h2.463   C57.504,87.505,54.128,90.88,49.978,90.88L49.978,90.88z"></path><path d="M46.927,77.784c1.019,0,1.846,0.827,1.846,1.846c0,1.02-0.827,1.844-1.846,1.844c-1.019,0-1.844-0.824-1.844-1.844   C45.083,78.611,45.909,77.784,46.927,77.784z"></path><path d="M53.028,77.784c1.019,0,1.847,0.827,1.847,1.846c0,1.02-0.828,1.844-1.847,1.844s-1.844-0.824-1.844-1.844   C51.185,78.611,52.01,77.784,53.028,77.784z"></path></g></svg>
